<svg id="Capa_1" data-name="Capa 1" xmlns="http://www.w3.org/2000/svg" viewBox="0 0 260.13 107.91"><defs><style>.cls-1{fill:#f47521;}.cls-2{fill:#5f6062;}</style></defs><title>AVI_Copy</title><path class="cls-1" d="M471.52,322.63a2.26,2.26,0,0,1-2,1.1H438.22a2.41,2.41,0,0,1-2.41-2.41,2.39,2.39,0,0,1,2.41-2.41h27.61l-21.57-49.35L421.2,322.28a2.29,2.29,0,0,1-2.23,1.45,2.48,2.48,0,0,1-1-.22,2.25,2.25,0,0,1-1.26-1.32,2.33,2.33,0,0,1,0-1.83L442,262.6a2.28,2.28,0,0,1,2.23-1.45,2.21,2.21,0,0,1,2.19,1.45l25.29,57.76A2.22,2.22,0,0,1,471.52,322.63Z" transform="translate(-268.31 -252.65)"/><path class="cls-1" d="M459.53,264.52a2.33,2.33,0,0,1,0-1.83,2.37,2.37,0,0,1,1.26-1.36,2.27,2.27,0,0,1,1.84,0A2.42,2.42,0,0,1,464,262.6L487,315.32l23.06-52.72a2.44,2.44,0,0,1,3.15-1.27,2.56,2.56,0,0,1,1.31,1.36,2.37,2.37,0,0,1,0,1.83l-25.3,57.76a2.19,2.19,0,0,1-2.18,1.45,2.28,2.28,0,0,1-2.23-1.45Z" transform="translate(-268.31 -252.65)"/><path class="cls-1" d="M526,323.73a2.33,2.33,0,0,1-1.71-.71,2.29,2.29,0,0,1-.7-1.7V263.56a2.32,2.32,0,0,1,.7-1.71,2.36,2.36,0,0,1,1.71-.7,2.39,2.39,0,0,1,2.4,2.41v57.76a2.41,2.41,0,0,1-2.4,2.41Z" transform="translate(-268.31 -252.65)"/><path class="cls-2" d="M426.31,351c-.78.08-2.79.1-4,.1-2.87,0-4.37-1.08-4.37-3.81v-7.9c0-2.73,1.5-3.81,4.37-3.81,1.21,0,3.14,0,4,.12a.29.29,0,0,1,.2.29v1c0,.15-.08.25-.22.25h-4c-2.17,0-2.52.57-2.52,2.13v2.85h6.29a.41.41,0,0,1,.41.41v.78a.41.41,0,0,1-.41.41h-6.29v3.45c0,1.56.35,2.13,2.52,2.13h4c.14,0,.22.1.22.25v1A.29.29,0,0,1,426.31,351Z" transform="translate(-268.31 -252.65)"/><path class="cls-2" d="M438.49,351h-1a.41.41,0,0,1-.41-.41v-6.75c0-2.07-.7-2.71-2.26-2.71a6.56,6.56,0,0,0-2.77.8v8.66a.43.43,0,0,1-.41.41h-1a.4.4,0,0,1-.39-.41V340.12a.39.39,0,0,1,.39-.41h1a.39.39,0,0,1,.39.41v.39a6.17,6.17,0,0,1,3.27-.94c2.46,0,3.56,1.53,3.56,4.26v6.75A.41.41,0,0,1,438.49,351Z" transform="translate(-268.31 -252.65)"/><path class="cls-2" d="M451.23,345.92h-6.87v.29c0,2.44,1,3.34,2.85,3.34a28.75,28.75,0,0,0,3.65-.22H451a.29.29,0,0,1,.32.29v.69c0,.27-.08.41-.4.47a18.32,18.32,0,0,1-3.68.35c-2.35,0-4.65-1.1-4.65-4.92v-1.85c0-2.93,1.62-4.79,4.55-4.79s4.51,1.88,4.51,4.79v1.11C451.62,345.74,451.48,345.92,451.23,345.92Zm-1.43-1.56c0-2.31-.88-3.21-2.69-3.21s-2.75,1-2.75,3.21v.19h5.44Z" transform="translate(-268.31 -252.65)"/><path class="cls-2" d="M460,341.12a5.24,5.24,0,0,0-2.83.87v8.59a.43.43,0,0,1-.41.41h-1a.4.4,0,0,1-.39-.41V340.12a.39.39,0,0,1,.39-.41h1a.39.39,0,0,1,.39.41v.43a4.89,4.89,0,0,1,2.89-1c.29,0,.43.12.43.37v.84C460.38,341,460.24,341.12,460,341.12Z" transform="translate(-268.31 -252.65)"/><path class="cls-2" d="M472.53,341.08l-.74.15a2.86,2.86,0,0,1,.7,2.11v.16c0,2.26-1.4,3.51-4.56,3.51a5.89,5.89,0,0,1-2.38-.41.74.74,0,0,0-.51.7c0,.35.16.53.64.65l3.05.78c2,.52,3.94,1.09,3.94,3v.16c0,2-1.31,3.18-4.68,3.18s-4.71-1.25-4.71-3.26v-.18a3.32,3.32,0,0,1,1.29-2.61l-.14-.06a1.69,1.69,0,0,1-.95-1.6v0a1.71,1.71,0,0,1,.84-1.48,3,3,0,0,1-.94-2.38v-.16c0-1.83,1-3.63,4.55-3.63h4.49a.47.47,0,0,1,.48.45v.53C472.9,341,472.75,341,472.53,341.08Zm-1.66,10.67c0-.8-.66-1.13-2.51-1.6l-2.31-.6a2.46,2.46,0,0,0-1,2.1v.18c0,1.15.68,1.87,2.95,1.87s2.88-.66,2.88-1.79Zm-.17-8.41c0-1.23-.55-2.19-2.77-2.19s-2.77,1-2.77,2.19v.16c0,.91.41,2.1,2.77,2.1s2.77-.87,2.77-2.1Z" transform="translate(-268.31 -252.65)"/><path class="cls-2" d="M485,340.2,481.61,352c-.63,2.21-1.39,3-3.75,3a8.74,8.74,0,0,1-1.72-.18c-.25-.07-.43-.13-.43-.33v-.76c0-.23.16-.33.39-.33h.06c.45,0,1.37.12,1.82.12,1.17,0,1.69-.3,2-1.74l.21-.84h-.29c-.61,0-1.15-.14-1.52-1.42l-2.72-9.37a.34.34,0,0,1,0-.14.33.33,0,0,1,.37-.35h1.12a.4.4,0,0,1,.35.33l2.42,8.9c.11.41.25.45.39.45h.33l2.5-9.37a.42.42,0,0,1,.39-.31h1.15a.32.32,0,0,1,.33.35A.34.34,0,0,1,485,340.2Z" transform="translate(-268.31 -252.65)"/><path class="cls-2" d="M503.32,351a35,35,0,0,1-4,.18c-2.2,0-4.37-.43-4.37-3.81V336.16a.42.42,0,0,1,.41-.41h1.05a.42.42,0,0,1,.41.41v11.16c0,1.56.35,2.13,2.52,2.13h4c.14,0,.22.1.22.25v1A.29.29,0,0,1,503.32,351Z" transform="translate(-268.31 -252.65)"/><path class="cls-2" d="M514,351h-1a.41.41,0,0,1-.41-.41v-.45a6.27,6.27,0,0,1-3.16,1c-1.74,0-3.34-.76-3.34-3.32v-.25c0-2.21,1.29-3.32,4.94-3.32h1.52v-.82c0-1.72-.59-2.32-2.19-2.32a30.08,30.08,0,0,0-3.14.17h-.1c-.19,0-.37-.06-.37-.33v-.72c0-.22.14-.35.43-.39a18.06,18.06,0,0,1,3.18-.26c2.85,0,4,1.43,4,3.85v7.16A.41.41,0,0,1,514,351Zm-1.4-5.46h-1.52c-2.48,0-3.13.56-3.13,2v.25c0,1.48.69,1.87,1.88,1.87a5.65,5.65,0,0,0,2.77-.82Z" transform="translate(-268.31 -252.65)"/><path class="cls-2" d="M522.6,351.13a19.53,19.53,0,0,1-3.77-.35c-.37-.06-.43-.18-.43-.47V336a.37.37,0,0,1,.37-.39h1a.38.38,0,0,1,.39.39v3.81a15,15,0,0,1,2.4-.2c3,0,4.47,1.8,4.47,5v1.48C527.07,349.14,525.68,351.13,522.6,351.13Zm2.67-6.54c0-2.19-.66-3.44-2.67-3.44a16.5,16.5,0,0,0-2.4.14v8.14c.7.06,1.71.12,2.4.12,2,0,2.67-1.25,2.67-3.48Z" transform="translate(-268.31 -252.65)"/><path class="cls-1" d="M361.93,319.85l0,0,.09.22a6.11,6.11,0,0,0,3.4,3.18,6.08,6.08,0,0,0,7.69-8.19L368.2,304.2a3,3,0,0,1,5.56-2.48,6.78,6.78,0,0,0,3.51,3.45,5.83,5.83,0,0,0,4.54-.42,6.07,6.07,0,0,0,3-8l-5.16-11.41a6.08,6.08,0,0,0-11.08,5l.15.33a3,3,0,0,1-5.53,2.53h0a6.08,6.08,0,1,0-11.08,5l4.76,10.53a3.06,3.06,0,0,1-5.39,2.85h0l-2.56-5.66-5-11.08-17.45-38.57a6.08,6.08,0,1,0-11.08,5l5,11h0a3,3,0,0,1-5.57,2.44l0-.06a6.08,6.08,0,1,0-11.08,5l5,11a3,3,0,0,1-5.52,2.55l0-.05,0-.08a6.08,6.08,0,0,0-11.08,5L297,309a3,3,0,0,1-5.55,2.48,6.78,6.78,0,0,0-3.51-3.45,5.87,5.87,0,0,0-4.54.42,6.07,6.07,0,0,0-3,8.05l5.16,11.4a6.08,6.08,0,0,0,11.08-5l-.15-.32a3,3,0,0,1,5.53-2.54h0A6.08,6.08,0,1,0,313,315l-4.87-10.76a3,3,0,1,1,5.54-2.51l2.52,5.56,5,11.08L338.68,357a6.08,6.08,0,1,0,11.08-5l-5-11a3,3,0,0,1,1.53-4,3.1,3.1,0,0,1,4.05,1.58,6.08,6.08,0,1,0,11.08-5l-5.24-11.6h0a3,3,0,0,1,1.65-3.66A3.16,3.16,0,0,1,361.93,319.85Zm-18.12,11.58a3,3,0,0,1-4-1.4l0-.06-7.5-16.57-5-11.08-7.47-16.52h0a3,3,0,0,1,5.52-2.55l7.49,16.57,5,11.08,7.47,16.52A3,3,0,0,1,343.81,331.43Z" transform="translate(-268.31 -252.65)"/><path class="cls-1" d="M276.9,338.46a6.08,6.08,0,1,1,3-8A6.08,6.08,0,0,1,276.9,338.46Z" transform="translate(-268.31 -252.65)"/><path class="cls-1" d="M393.27,285.83a6.08,6.08,0,1,1,3-8.05A6.08,6.08,0,0,1,393.27,285.83Z" transform="translate(-268.31 -252.65)"/></svg>