<?xml version="1.0" encoding="UTF-8" standalone="no"?>
<svg
   xmlns:dc="http://purl.org/dc/elements/1.1/"
   xmlns:cc="http://creativecommons.org/ns#"
   xmlns:rdf="http://www.w3.org/1999/02/22-rdf-syntax-ns#"
   xmlns:svg="http://www.w3.org/2000/svg"
   xmlns="http://www.w3.org/2000/svg"
   xmlns:sodipodi="http://sodipodi.sourceforge.net/DTD/sodipodi-0.dtd"
   xmlns:inkscape="http://www.inkscape.org/namespaces/inkscape"
   version="1.1"
   width="512"
   height="512"
   x="0"
   y="0"
   viewBox="0 0 490.66496 490.66496"
   xml:space="preserve"
   class=""
   id="svg10"
   sodipodi:docname="devops.svg"
   inkscape:version="0.92.2 (5c3e80d, 2017-08-06)"><metadata
     id="metadata16"><rdf:RDF><cc:Work
         rdf:about=""><dc:format>image/svg+xml</dc:format><dc:type
           rdf:resource="http://purl.org/dc/dcmitype/StillImage" /><dc:title></dc:title></cc:Work></rdf:RDF></metadata><defs
     id="defs14" /><sodipodi:namedview
     pagecolor="#ffffff"
     bordercolor="#666666"
     borderopacity="1"
     objecttolerance="10"
     gridtolerance="10"
     guidetolerance="10"
     inkscape:pageopacity="0"
     inkscape:pageshadow="2"
     inkscape:window-width="1920"
     inkscape:window-height="1001"
     id="namedview12"
     showgrid="false"
     fit-margin-top="0"
     fit-margin-left="0"
     fit-margin-right="0"
     fit-margin-bottom="200"
     inkscape:zoom="0.4609375"
     inkscape:cx="-532.61017"
     inkscape:cy="166.95966"
     inkscape:window-x="-9"
     inkscape:window-y="-9"
     inkscape:window-maximized="1"
     inkscape:current-layer="g8" /><g
     id="g8"
     transform="translate(0,85.330996)"><g
       id="g818"
       transform="translate(0,53.001484)"><path
         inkscape:connector-curvature="0"
         id="path4"
         class=""
         style="fill:#22a6f2"
         data-original="#000000"
         d="m 202.66797,85.667969 h -64 C 132.77734,85.667969 128,80.886719 128,75 c 0,-5.886719 4.77734,-10.667969 10.66797,-10.667969 H 192 V 11 c 0,-5.886719 4.77734,-10.667969 10.66797,-10.667969 5.88672,0 10.66406,4.78125 10.66406,10.667969 v 64 c 0,5.886719 -4.77734,10.667969 -10.66406,10.667969 z m 0,0" /><path
         inkscape:connector-curvature="0"
         id="path2"
         class=""
         style="fill:#22a6f2"
         data-original="#000000"
         d="m 388.17969,213.66797 c -21.54688,0 -42.23828,-7.125 -60.03125,-20.65235 -1.06641,-0.49218 -2.07032,-1.17187 -2.94141,-2.04687 l -44.73828,-44.41797 c -4.17969,-4.13672 -4.20313,-10.89844 -0.043,-15.08203 4.18359,-4.17969 10.92188,-4.16016 15.10547,-0.043 l 42.92187,42.625 c 0.32032,0.21484 0.64063,0.42578 0.9375,0.66016 14.40235,11.54297 31.27735,17.62109 48.78907,17.62109 44.75781,0 81.15234,-38.26953 81.15234,-85.33203 0,-47.0625 -36.41406,-85.332031 -81.15234,-85.332031 -17.49219,0 -34.36719,6.078125 -48.78906,17.597656 -0.48829,0.40625 -1.04297,0.746094 -1.59766,1.066406 L 164.94922,191.4375 c -0.78906,0.68359 -1.64063,1.25781 -2.55859,1.66406 -17.75,13.46094 -38.40235,20.56641 -59.90625,20.56641 C 45.972656,213.66797 0,165.81641 0,107 0,48.183594 45.972656,0.332031 102.48438,0.332031 c 21.54687,0 42.24218,7.125 60.03125,20.652344 1.07031,0.492187 2.07031,1.171875 2.94531,2.046875 l 44.73828,44.417969 c 4.17969,4.136719 4.19922,10.898437 0.0391,15.082031 -4.16015,4.203125 -10.89844,4.203125 -15.10156,0.04297 L 152.21484,39.929688 C 151.89453,39.714844 151.57422,39.5 151.27344,39.265625 136.875,27.746094 120,21.667969 102.48438,21.667969 57.75,21.667969 21.332031,59.9375 21.332031,107 c 0,47.0625 36.417969,85.33203 81.152349,85.33203 17.49609,0 34.36718,-6.07812 48.78906,-17.59766 0.49219,-0.40625 1.04687,-0.74609 1.60156,-1.0664 L 325.71875,22.5625 c 0.78906,-0.683594 1.64063,-1.257812 2.55859,-1.664062 17.75,-13.460938 38.39844,-20.566407 59.90235,-20.566407 56.51172,0 102.48828,47.851563 102.48828,106.667969 0,58.81641 -45.97656,106.66797 -102.48828,106.66797 z m 0,0" /><path
         inkscape:connector-curvature="0"
         id="path6"
         class=""
         style="fill:#22a6f2"
         data-original="#000000"
         d="m 288,213.66797 c -5.88672,0 -10.66797,-4.78125 -10.66797,-10.66797 v -64 c 0,-5.88672 4.78125,-10.66797 10.66797,-10.66797 h 64 c 5.88672,0 10.66797,4.78125 10.66797,10.66797 0,5.88672 -4.78125,10.66797 -10.66797,10.66797 H 298.66797 V 203 c 0,5.88672 -4.78125,10.66797 -10.66797,10.66797 z m 0,0" /></g></g></svg>